<svg xmlns="http://www.w3.org/2000/svg" width="256" height="256" viewBox="-16 -16 288 288" version="1.1">
	<path d="M 0.478 127.500 C 0.478 175.350, 0.600 195.071, 0.750 171.325 C 0.899 147.579, 0.899 108.429, 0.750 84.325 C 0.601 60.221, 0.478 79.650, 0.478 127.500 M 87.655 151.829 C 83.982 155.887, 86.593 162, 92 162 C 95.617 162, 98 159.650, 98 156.084 C 98 150.733, 91.184 147.929, 87.655 151.829 M 126.655 151.829 C 122.982 155.887, 125.593 162, 131 162 C 134.617 162, 137 159.650, 137 156.084 C 137 150.733, 130.184 147.929, 126.655 151.829 M 82.655 167.829 C 81.333 169.290, 81 171.802, 81 180.329 L 81 191 83.500 191 L 86 191 86 201.500 L 86 212 92 212 L 98 212 98 201.500 L 98 191 100.500 191 L 103 191 103 180.155 C 103 166.523, 102.587 166, 91.826 166 C 85.815 166, 83.979 166.366, 82.655 167.829 M 126.264 167.250 C 125.725 167.938, 124.591 170.582, 123.745 173.126 C 122.220 177.710, 122.230 177.775, 124.853 180.396 C 127.436 182.976, 127.508 183.390, 127.824 197.520 L 128.148 212 132.574 212 L 137 212 137 203 L 137 194 141 194 C 143.200 194, 145 193.866, 145 193.703 C 145 192.746, 137.049 169.960, 136.089 168.166 C 135.209 166.522, 134.004 166, 131.087 166 C 128.974 166, 126.804 166.563, 126.264 167.250 M 110.655 171.829 C 108.330 174.398, 108.595 176.689, 111.433 178.548 C 114.734 180.711, 118 179.028, 118 175.165 C 118 170.202, 113.838 168.311, 110.655 171.829 M 107.200 184.200 C 106.486 184.914, 106 188.356, 106 192.700 C 106 198.522, 106.304 200, 107.500 200 C 108.667 200, 109 201.333, 109 206 C 109 212.520, 108.606 212.162, 116 212.348 C 118.374 212.407, 118.515 212.097, 118.798 206.205 C 119.019 201.583, 119.466 200, 120.548 200 C 121.670 200, 122 198.508, 122 193.434 C 122 184.064, 121.201 183, 114.165 183 C 110.994 183, 107.860 183.540, 107.200 184.200" stroke="none" fill="#CC8B4A" fill-rule="evenodd"/>
</svg>