<svg xmlns="http://www.w3.org/2000/svg" width="256" height="256" viewBox="-16 -16 288 288" version="1.1">
	<path d="M 196.148 40.467 C 195.459 42.373, 192.904 48.194, 190.470 53.402 L 186.045 62.871 178.273 66.513 C 173.998 68.516, 168.250 71.094, 165.500 72.241 C 158.248 75.266, 158.092 75.733, 163.570 78.011 C 166.281 79.139, 172.495 81.970, 177.377 84.303 L 186.254 88.545 192.079 101.506 C 195.283 108.635, 198.338 114.613, 198.867 114.789 C 199.397 114.966, 200.159 114.073, 200.560 112.805 C 200.962 111.537, 202.949 106.900, 204.976 102.500 C 207.003 98.100, 209.293 93.049, 210.064 91.275 C 210.903 89.344, 212.677 87.564, 214.483 86.840 C 216.142 86.174, 221.239 83.913, 225.809 81.815 C 230.379 79.717, 234.487 78, 234.937 78 C 235.387 78, 236.312 77.329, 236.992 76.510 C 238.257 74.985, 237.676 74.651, 221.053 67.345 C 212.800 63.718, 211.309 62.624, 209.766 59.062 C 204.142 46.081, 199.522 37, 198.541 37 C 197.914 37, 196.838 38.560, 196.148 40.467 M 89.544 83.779 C 76.541 112.741, 72.068 122, 71.077 122 C 70.561 122, 67.296 123.308, 63.820 124.906 C 60.344 126.504, 54.125 129.368, 50 131.270 C 45.875 133.172, 40.250 135.750, 37.500 136.998 C 34.750 138.247, 29.125 140.832, 25 142.743 L 17.500 146.218 22 148.388 C 24.475 149.582, 28.862 151.570, 31.749 152.807 C 34.636 154.043, 40.711 156.779, 45.249 158.886 C 49.787 160.993, 56.875 164.224, 61 166.066 C 71.501 170.754, 72.892 171.780, 75.023 176.411 C 78.311 183.557, 94.093 218.349, 95.816 222.250 C 96.727 224.312, 97.756 226, 98.103 226 C 98.450 226, 99.670 223.863, 100.815 221.250 C 104.141 213.660, 109.906 200.844, 111.948 196.500 C 114.716 190.613, 120.469 177.983, 122.077 174.263 C 122.994 172.143, 124.687 170.541, 126.988 169.618 C 130.312 168.284, 132.677 167.226, 149.500 159.541 C 153.350 157.783, 158.959 155.254, 161.964 153.922 C 164.970 152.590, 169.920 150.312, 172.964 148.860 L 178.500 146.220 171.500 143.006 C 167.650 141.238, 162.025 138.653, 159 137.262 C 155.975 135.871, 151.250 133.716, 148.500 132.473 C 145.750 131.229, 139.536 128.364, 134.691 126.106 C 129.846 123.848, 125.429 122, 124.876 122 C 124.012 122, 121.971 117.955, 114.531 101.500 C 111.832 95.530, 107.131 85.320, 103.107 76.691 C 100.848 71.846, 99 67.458, 99 66.941 C 99 63.790, 96.598 68.067, 89.544 83.779 M 195.893 182.750 C 194.706 185.363, 192.394 190.425, 190.756 194 C 189.117 197.575, 187.388 201.512, 186.913 202.750 C 186.438 203.988, 185.601 205, 185.053 205 C 184.505 205, 179.708 207.059, 174.393 209.576 C 169.078 212.093, 163.665 214.557, 162.365 215.051 C 161.064 215.546, 160 216.356, 160 216.852 C 160 217.349, 165.929 220.392, 173.176 223.617 C 185.421 229.064, 186.464 229.744, 187.926 233.229 L 189.500 236.980 199.049 236.990 L 208.598 237 209.893 233.420 C 211.055 230.206, 212.227 229.356, 221.344 225.110 C 226.930 222.508, 232.963 219.790, 234.750 219.069 C 238.562 217.531, 238.875 216.284, 235.750 215.092 C 234.512 214.620, 230.125 212.683, 226 210.789 C 221.875 208.894, 216.983 206.704, 215.128 205.922 C 211.692 204.473, 210.763 202.870, 201.991 183.250 C 200.700 180.363, 199.285 178, 198.847 178 C 198.409 178, 197.079 180.137, 195.893 182.750" stroke="none" fill="#CC8B4A" fill-rule="evenodd"/>
</svg>