<svg xmlns="http://www.w3.org/2000/svg" width="256" height="256" viewBox="-16 -16 288 288" version="1.1">
	<path d="M 19.458 43.250 C 19.194 43.938, 19.095 63.625, 19.239 87 L 19.500 129.500 57.750 129.762 L 96 130.024 96 113.478 L 96 96.932 106.750 97.216 L 117.500 97.500 117.759 151.750 L 118.017 206 139.509 206 L 161 206 161 219.500 L 161 233 199.500 233 L 238 233 238 193.059 C 238 171.091, 237.636 152.893, 237.192 152.619 C 236.577 152.238, 168.575 151.620, 162.250 151.937 C 161.305 151.985, 161 155.907, 161 168.034 L 161 184.068 150.250 183.784 L 139.500 183.500 139.815 140.500 L 140.131 97.500 150.565 97.216 L 161 96.932 161 113.478 L 161 130.024 199.250 129.762 L 237.500 129.500 237.500 86 L 237.500 42.500 199.250 42.238 L 161 41.976 161 58.488 L 161 75 128.500 75 L 96 75 96 58.500 L 96 42 57.969 42 C 28.466 42, 19.830 42.280, 19.458 43.250" stroke="none" fill="#CC8B4A" fill-rule="evenodd"/>
</svg>