<svg xmlns="http://www.w3.org/2000/svg" width="512" height="512" viewBox="0 0 512 512">
<defs><linearGradient id="g" x1="0" y1="0" x2="1" y2="1"><stop offset="0%" stop-color="#d98bb0"/><stop offset="100%" stop-color="#7a4c8f"/></linearGradient></defs>
<rect width="512" height="512" rx="72" fill="url(#g)"/>
<circle cx="256" cy="196" r="92" fill="#f2d2bf"/>
<path d="M140 182c16-86 70-122 116-122s100 36 116 122c-26-26-64-40-116-40s-90 14-116 40z" fill="#4a2e3f"/>
<path d="M120 436c20-76 70-124 136-124s116 48 136 124z" fill="#24334e"/>
<circle cx="224" cy="196" r="8" fill="#3b2f2f"/><circle cx="288" cy="196" r="8" fill="#3b2f2f"/>
<path d="M228 238c10 10 46 10 56 0" stroke="#9e5b5b" stroke-width="6" fill="none" stroke-linecap="round"/>
</svg>
