<svg xmlns="http://www.w3.org/2000/svg" width="512" height="512" viewBox="0 0 512 512">
<defs><linearGradient id="g" x1="0" y1="0" x2="1" y2="1"><stop offset="0%" stop-color="#7cb7e8"/><stop offset="100%" stop-color="#2a5680"/></linearGradient></defs>
<rect width="512" height="512" rx="72" fill="url(#g)"/>
<circle cx="256" cy="196" r="88" fill="#f0cfb7"/>
<path d="M150 178c8-72 58-112 106-112 58 0 102 38 112 112-18-16-44-32-112-32s-94 16-106 32z" fill="#2f2f38"/>
<path d="M120 436c18-70 72-118 136-118s118 48 136 118z" fill="#224a68"/>
<circle cx="224" cy="196" r="8" fill="#2f2f38"/><circle cx="288" cy="196" r="8" fill="#2f2f38"/>
<path d="M232 238c12 8 36 8 48 0" stroke="#8f5a4f" stroke-width="6" fill="none" stroke-linecap="round"/>
</svg>
