<svg xmlns="http://www.w3.org/2000/svg" width="512" height="512" viewBox="0 0 512 512">
<defs><linearGradient id="g" x1="0" y1="0" x2="1" y2="1"><stop offset="0%" stop-color="#8fd7c7"/><stop offset="100%" stop-color="#2f7d73"/></linearGradient></defs>
<rect width="512" height="512" rx="72" fill="url(#g)"/>
<circle cx="256" cy="206" r="82" fill="#f1d2bc"/>
<path d="M160 188c10-66 52-102 96-102 44 0 86 36 96 102-22-14-56-24-96-24s-74 10-96 24z" fill="#3a403a"/>
<path d="M130 436c18-66 68-108 126-108s108 42 126 108z" fill="#2b5e63"/>
<circle cx="226" cy="206" r="7" fill="#343734"/><circle cx="286" cy="206" r="7" fill="#343734"/>
<path d="M234 244c10 8 34 8 44 0" stroke="#86564c" stroke-width="5" fill="none" stroke-linecap="round"/>
</svg>
