<svg xmlns="http://www.w3.org/2000/svg" width="512" height="512" viewBox="0 0 512 512">
<defs><linearGradient id="g" x1="0" y1="0" x2="1" y2="1"><stop offset="0%" stop-color="#a2b6d9"/><stop offset="100%" stop-color="#4a5f8f"/></linearGradient></defs>
<rect width="512" height="512" rx="72" fill="url(#g)"/>
<circle cx="256" cy="198" r="92" fill="#f0cfb6"/>
<path d="M154 182c12-74 54-116 102-116s90 42 102 116c-22-16-54-30-102-30s-80 14-102 30z" fill="#2f2c2f"/>
<path d="M122 436c18-72 70-120 134-120s116 48 134 120z" fill="#2c3f61"/>
<circle cx="224" cy="198" r="8" fill="#2d2b2e"/><circle cx="288" cy="198" r="8" fill="#2d2b2e"/>
<path d="M232 238c10 8 38 8 48 0" stroke="#8d564a" stroke-width="6" fill="none" stroke-linecap="round"/>
</svg>
