<svg xmlns="http://www.w3.org/2000/svg" width="512" height="512" viewBox="0 0 512 512">
<defs><linearGradient id="g" x1="0" y1="0" x2="1" y2="1"><stop offset="0%" stop-color="#ffd0a8"/><stop offset="100%" stop-color="#e88874"/></linearGradient></defs>
<rect width="512" height="512" rx="72" fill="url(#g)"/>
<circle cx="256" cy="216" r="76" fill="#f5dcc9"/>
<path d="M170 206c12-56 44-88 86-88s74 32 86 88c-20-14-46-22-86-22s-66 8-86 22z" fill="#6b4c3d"/>
<path d="M148 436c16-58 58-96 108-96s92 38 108 96z" fill="#8f4357"/>
<circle cx="228" cy="216" r="6" fill="#4a3d3d"/><circle cx="284" cy="216" r="6" fill="#4a3d3d"/>
<path d="M234 248c10 10 34 10 44 0" stroke="#a05f5f" stroke-width="5" fill="none" stroke-linecap="round"/>
</svg>
