<svg xmlns="http://www.w3.org/2000/svg" width="512" height="512" viewBox="0 0 512 512">
<defs><linearGradient id="g" x1="0" y1="0" x2="1" y2="1"><stop offset="0%" stop-color="#b9e2ff"/><stop offset="100%" stop-color="#5f95d8"/></linearGradient></defs>
<rect width="512" height="512" rx="72" fill="url(#g)"/>
<circle cx="256" cy="218" r="74" fill="#f4dac3"/>
<path d="M174 208c10-52 42-84 82-84s72 32 82 84c-18-12-42-20-82-20s-64 8-82 20z" fill="#4a4037"/>
<path d="M150 436c16-56 56-94 106-94s90 38 106 94z" fill="#3f5f8a"/>
<circle cx="228" cy="218" r="6" fill="#3d3530"/><circle cx="284" cy="218" r="6" fill="#3d3530"/>
<path d="M236 248c8 8 32 8 40 0" stroke="#935c52" stroke-width="5" fill="none" stroke-linecap="round"/>
</svg>
