<svg xmlns="http://www.w3.org/2000/svg" width="512" height="512" viewBox="0 0 512 512">
<defs><linearGradient id="g" x1="0" y1="0" x2="1" y2="1"><stop offset="0%" stop-color="#c8cfdb"/><stop offset="100%" stop-color="#7b8597"/></linearGradient></defs>
<rect width="512" height="512" rx="72" fill="url(#g)"/>
<circle cx="256" cy="198" r="92" fill="#edd0bb"/>
<path d="M146 184c14-78 58-122 110-122s96 44 110 122c-20-16-56-34-110-34s-90 18-110 34z" fill="#dfe3ea"/>
<path d="M118 436c18-76 72-124 138-124s120 48 138 124z" fill="#4d596d"/>
<circle cx="224" cy="198" r="8" fill="#3e434a"/><circle cx="288" cy="198" r="8" fill="#3e434a"/>
<path d="M230 236c12 8 40 8 52 0" stroke="#8f655c" stroke-width="6" fill="none" stroke-linecap="round"/>
</svg>
