<svg xmlns="http://www.w3.org/2000/svg" width="512" height="512" viewBox="0 0 512 512">
<defs><linearGradient id="g" x1="0" y1="0" x2="1" y2="1"><stop offset="0%" stop-color="#e0ccd9"/><stop offset="100%" stop-color="#9d7b96"/></linearGradient></defs>
<rect width="512" height="512" rx="72" fill="url(#g)"/>
<circle cx="256" cy="198" r="90" fill="#efd5c0"/>
<path d="M148 186c14-76 58-118 108-118s94 42 108 118c-22-18-56-34-108-34s-86 16-108 34z" fill="#d8dce3"/>
<path d="M124 436c18-72 68-120 132-120s114 48 132 120z" fill="#6d4f6f"/>
<circle cx="224" cy="198" r="8" fill="#45404a"/><circle cx="288" cy="198" r="8" fill="#45404a"/>
<path d="M230 236c12 10 40 10 52 0" stroke="#9b6666" stroke-width="6" fill="none" stroke-linecap="round"/>
</svg>
